<mxfile host="app.diagrams.net" modified="2023-08-15T09:14:50.861Z" agent="Mozilla/5.0 (Windows NT 10.0; Win64; x64) AppleWebKit/537.36 (KHTML, like Gecko) Chrome/115.0.0.0 Safari/537.36" etag="xGeHoesq1bVqNErQz5IR" version="21.6.8" type="github">
  <diagram name="Page-1" id="c37626ed-c26b-45fb-9056-f9ebc6bb27b6">
    <mxGraphModel dx="1400" dy="734" grid="1" gridSize="10" guides="1" tooltips="1" connect="1" arrows="1" fold="1" page="1" pageScale="1" pageWidth="1169" pageHeight="827" background="none" math="0" shadow="0">
      <root>
        <mxCell id="0" />
        <mxCell id="1" parent="0" />
        <mxCell id="C9soJnvK-WdOjWq8ESSx-5" value="" style="rounded=0;whiteSpace=wrap;html=1;fillColor=#dae8fc;strokeColor=#000000;" parent="1" vertex="1">
          <mxGeometry x="760" y="349" width="308.25" height="161" as="geometry" />
        </mxCell>
        <mxCell id="C9soJnvK-WdOjWq8ESSx-4" value="" style="rounded=0;whiteSpace=wrap;html=1;fillColor=#f8cecc;strokeColor=#000000;" parent="1" vertex="1">
          <mxGeometry x="440.87" y="349" width="308.25" height="161" as="geometry" />
        </mxCell>
        <mxCell id="C9soJnvK-WdOjWq8ESSx-3" value="" style="rounded=0;whiteSpace=wrap;html=1;fillColor=#e1d5e7;strokeColor=#000000;" parent="1" vertex="1">
          <mxGeometry x="120" y="350" width="308.25" height="160" as="geometry" />
        </mxCell>
        <mxCell id="C9soJnvK-WdOjWq8ESSx-2" value="" style="rounded=0;whiteSpace=wrap;html=1;fillColor=#d5e8d4;strokeColor=#000000;" parent="1" vertex="1">
          <mxGeometry x="390" y="80" width="390" height="250" as="geometry" />
        </mxCell>
        <mxCell id="8NDlUTmJP2dTjy302EjL-38" style="edgeStyle=none;rounded=0;hachureGap=4;orthogonalLoop=1;jettySize=auto;html=1;exitX=0.5;exitY=0;exitDx=0;exitDy=0;exitPerimeter=0;entryX=0.5;entryY=1;entryDx=0;entryDy=0;entryPerimeter=0;fontFamily=Architects Daughter;fontSource=https%3A%2F%2Ffonts.googleapis.com%2Fcss%3Ffamily%3DArchitects%2BDaughter;fontSize=16;strokeColor=#EA6B66;endArrow=none;endFill=0;strokeWidth=3;" parent="1" source="8NDlUTmJP2dTjy302EjL-2" target="8NDlUTmJP2dTjy302EjL-5" edge="1">
          <mxGeometry relative="1" as="geometry">
            <mxPoint x="355" y="289" as="sourcePoint" />
          </mxGeometry>
        </mxCell>
        <mxCell id="8NDlUTmJP2dTjy302EjL-45" style="edgeStyle=none;rounded=0;hachureGap=4;orthogonalLoop=1;jettySize=auto;html=1;exitX=0.5;exitY=0;exitDx=0;exitDy=0;exitPerimeter=0;entryX=0.5;entryY=1;entryDx=0;entryDy=0;entryPerimeter=0;fontFamily=Architects Daughter;fontSource=https%3A%2F%2Ffonts.googleapis.com%2Fcss%3Ffamily%3DArchitects%2BDaughter;fontSize=16;strokeWidth=3;strokeColor=#EA6B66;endArrow=none;endFill=0;" parent="1" source="hgnLhlOXLDX8HSQQPNeT-8" target="8NDlUTmJP2dTjy302EjL-5" edge="1">
          <mxGeometry relative="1" as="geometry">
            <mxPoint x="879" y="537" as="sourcePoint" />
          </mxGeometry>
        </mxCell>
        <mxCell id="8NDlUTmJP2dTjy302EjL-7" value="" style="shape=mxgraph.cisco.misc.route_switch_processor;html=1;dashed=0;fillColor=#036897;strokeColor=#ffffff;strokeWidth=2;verticalLabelPosition=bottom;verticalAlign=top;rounded=0;shadow=0;comic=0;fontFamily=Verdana;fontSize=12;" parent="1" vertex="1">
          <mxGeometry x="627" y="167" width="71" height="95" as="geometry" />
        </mxCell>
        <mxCell id="8NDlUTmJP2dTjy302EjL-67" value="Spine-1&lt;br&gt;L0:&amp;nbsp;10.1.0.1/32" style="text;html=1;strokeColor=none;fillColor=none;align=center;verticalAlign=middle;whiteSpace=wrap;rounded=0;fontSize=20;fontFamily=Helvetica;horizontal=1;" parent="1" vertex="1">
          <mxGeometry x="428.25" y="124" width="141.75" height="40" as="geometry" />
        </mxCell>
        <mxCell id="8NDlUTmJP2dTjy302EjL-68" value="Leaf-1&lt;br&gt;L0: 10.1.1.1/32&lt;br&gt;L1: 10.1.2.1/32" style="text;html=1;strokeColor=none;fillColor=none;align=center;verticalAlign=middle;whiteSpace=wrap;rounded=0;fontSize=20;fontFamily=Helvetica;horizontal=1;" parent="1" vertex="1">
          <mxGeometry x="130" y="397" width="155" height="50" as="geometry" />
        </mxCell>
        <mxCell id="8NDlUTmJP2dTjy302EjL-69" value="Spine-2&lt;br&gt;L0:&amp;nbsp;10.1.0.2/32" style="text;html=1;strokeColor=none;fillColor=none;align=center;verticalAlign=middle;whiteSpace=wrap;rounded=0;fontSize=20;fontFamily=Helvetica;horizontal=1;" parent="1" vertex="1">
          <mxGeometry x="585" y="124" width="141" height="40" as="geometry" />
        </mxCell>
        <mxCell id="8NDlUTmJP2dTjy302EjL-74" value="Leaf-3&lt;br&gt;L0:&amp;nbsp;10.1.1.3/32&lt;br&gt;L1:&amp;nbsp;10.1.2.3/32;&amp;nbsp;&lt;br&gt;10.1.2.20/32 sec" style="text;html=1;strokeColor=none;fillColor=none;align=left;verticalAlign=middle;whiteSpace=wrap;rounded=0;fontSize=20;fontFamily=Helvetica;horizontal=1;" parent="1" vertex="1">
          <mxGeometry x="911" y="420" width="156" height="40" as="geometry" />
        </mxCell>
        <mxCell id="V7yZK2pKeIdHbW1tO0_u-18" value="" style="edgeStyle=none;rounded=0;hachureGap=4;orthogonalLoop=1;jettySize=auto;html=1;exitX=0.5;exitY=0;exitDx=0;exitDy=0;exitPerimeter=0;entryX=0.5;entryY=1;entryDx=0;entryDy=0;entryPerimeter=0;fontFamily=Architects Daughter;fontSource=https%3A%2F%2Ffonts.googleapis.com%2Fcss%3Ffamily%3DArchitects%2BDaughter;fontSize=16;endArrow=none;endFill=0;strokeWidth=3;strokeColor=#EA6B66;" parent="1" source="8NDlUTmJP2dTjy302EjL-2" target="8NDlUTmJP2dTjy302EjL-7" edge="1">
          <mxGeometry relative="1" as="geometry">
            <mxPoint x="670" y="289" as="sourcePoint" />
            <mxPoint x="665" y="295" as="targetPoint" />
          </mxGeometry>
        </mxCell>
        <mxCell id="V7yZK2pKeIdHbW1tO0_u-21" value="" style="edgeStyle=none;rounded=0;hachureGap=4;orthogonalLoop=1;jettySize=auto;html=1;exitX=0.5;exitY=0;exitDx=0;exitDy=0;exitPerimeter=0;entryX=0.5;entryY=1;entryDx=0;entryDy=0;entryPerimeter=0;fontFamily=Architects Daughter;fontSource=https%3A%2F%2Ffonts.googleapis.com%2Fcss%3Ffamily%3DArchitects%2BDaughter;fontSize=16;endArrow=none;endFill=0;strokeWidth=3;strokeColor=#EA6B66;" parent="1" source="hgnLhlOXLDX8HSQQPNeT-8" target="8NDlUTmJP2dTjy302EjL-7" edge="1">
          <mxGeometry relative="1" as="geometry">
            <mxPoint x="879" y="537" as="sourcePoint" />
            <mxPoint x="805" y="305" as="targetPoint" />
          </mxGeometry>
        </mxCell>
        <mxCell id="V7yZK2pKeIdHbW1tO0_u-28" value="" style="edgeStyle=none;rounded=0;hachureGap=4;orthogonalLoop=1;jettySize=auto;html=1;exitX=0.5;exitY=0;exitDx=0;exitDy=0;exitPerimeter=0;entryX=0.5;entryY=1;entryDx=0;entryDy=0;entryPerimeter=0;fontFamily=Architects Daughter;fontSource=https%3A%2F%2Ffonts.googleapis.com%2Fcss%3Ffamily%3DArchitects%2BDaughter;fontSize=16;endArrow=none;endFill=0;strokeColor=#EA6B66;strokeWidth=3;" parent="1" source="hgnLhlOXLDX8HSQQPNeT-7" target="8NDlUTmJP2dTjy302EjL-7" edge="1">
          <mxGeometry relative="1" as="geometry">
            <mxPoint x="607.5" y="517" as="sourcePoint" />
            <mxPoint x="620" y="469.0000000000001" as="targetPoint" />
          </mxGeometry>
        </mxCell>
        <mxCell id="V7yZK2pKeIdHbW1tO0_u-30" value="" style="edgeStyle=none;rounded=0;hachureGap=4;orthogonalLoop=1;jettySize=auto;html=1;exitX=0.5;exitY=0;exitDx=0;exitDy=0;exitPerimeter=0;fontFamily=Architects Daughter;fontSource=https%3A%2F%2Ffonts.googleapis.com%2Fcss%3Ffamily%3DArchitects%2BDaughter;fontSize=16;endArrow=none;endFill=0;strokeWidth=3;strokeColor=#EA6B66;entryX=0.5;entryY=1;entryDx=0;entryDy=0;entryPerimeter=0;" parent="1" source="hgnLhlOXLDX8HSQQPNeT-7" target="8NDlUTmJP2dTjy302EjL-5" edge="1">
          <mxGeometry relative="1" as="geometry">
            <mxPoint x="607.5" y="517" as="sourcePoint" />
            <mxPoint x="526" y="267" as="targetPoint" />
          </mxGeometry>
        </mxCell>
        <mxCell id="V7yZK2pKeIdHbW1tO0_u-50" value="Eth1:&lt;b&gt;1&lt;/b&gt;" style="text;html=1;strokeColor=#d6b656;fillColor=#fff2cc;align=center;verticalAlign=middle;whiteSpace=wrap;rounded=1;fontSize=14;fontFamily=Helvetica;horizontal=1;" parent="1" vertex="1">
          <mxGeometry x="320" y="369" width="50" height="20" as="geometry" />
        </mxCell>
        <mxCell id="V7yZK2pKeIdHbW1tO0_u-56" value="AS 65000" style="text;html=1;strokeColor=none;fillColor=none;align=center;verticalAlign=middle;whiteSpace=wrap;rounded=0;fontSize=24;fontFamily=Helvetica;horizontal=1;fontStyle=1;fontColor=#000000;" parent="1" vertex="1">
          <mxGeometry x="450" y="90" width="270" height="28" as="geometry" />
        </mxCell>
        <mxCell id="V7yZK2pKeIdHbW1tO0_u-65" value="Eth2:&lt;b&gt;7&lt;/b&gt;" style="text;html=1;strokeColor=#d6b656;fillColor=#fff2cc;align=center;verticalAlign=middle;whiteSpace=wrap;rounded=1;fontSize=14;fontFamily=Helvetica;horizontal=1;" parent="1" vertex="1">
          <mxGeometry x="370" y="393" width="50" height="20" as="geometry" />
        </mxCell>
        <mxCell id="V7yZK2pKeIdHbW1tO0_u-66" value="Eth1:&lt;b&gt;0&lt;/b&gt;" style="text;html=1;strokeColor=#d6b656;fillColor=#fff2cc;align=center;verticalAlign=middle;whiteSpace=wrap;rounded=1;fontSize=14;fontFamily=Helvetica;horizontal=1;" parent="1" vertex="1">
          <mxGeometry x="430" y="287" width="50" height="20" as="geometry" />
        </mxCell>
        <mxCell id="V7yZK2pKeIdHbW1tO0_u-67" value="Eth2:&lt;b&gt;2&lt;/b&gt;" style="text;html=1;strokeColor=#d6b656;fillColor=#fff2cc;align=center;verticalAlign=middle;whiteSpace=wrap;rounded=1;fontSize=14;fontFamily=Helvetica;horizontal=1;" parent="1" vertex="1">
          <mxGeometry x="490" y="294" width="50" height="20" as="geometry" />
        </mxCell>
        <mxCell id="V7yZK2pKeIdHbW1tO0_u-68" value="Eth1:&lt;b&gt;3&lt;/b&gt;" style="text;html=1;strokeColor=#d6b656;fillColor=#fff2cc;align=center;verticalAlign=middle;whiteSpace=wrap;rounded=1;fontSize=14;fontFamily=Helvetica;horizontal=1;" parent="1" vertex="1">
          <mxGeometry x="587.13" y="384" width="50" height="20" as="geometry" />
        </mxCell>
        <mxCell id="V7yZK2pKeIdHbW1tO0_u-69" value="Eth1:&lt;b&gt;6&lt;/b&gt;" style="text;html=1;strokeColor=#d6b656;fillColor=#fff2cc;align=center;verticalAlign=middle;whiteSpace=wrap;rounded=1;fontSize=14;fontFamily=Helvetica;horizontal=1;" parent="1" vertex="1">
          <mxGeometry x="585" y="267" width="50" height="20" as="geometry" />
        </mxCell>
        <mxCell id="V7yZK2pKeIdHbW1tO0_u-70" value="Eth3:&lt;b&gt;4&lt;/b&gt;" style="text;html=1;strokeColor=#d6b656;fillColor=#fff2cc;align=center;verticalAlign=middle;whiteSpace=wrap;rounded=1;fontSize=14;fontFamily=Helvetica;horizontal=1;" parent="1" vertex="1">
          <mxGeometry x="520" y="267" width="50" height="20" as="geometry" />
        </mxCell>
        <mxCell id="V7yZK2pKeIdHbW1tO0_u-71" value="Eth1:&lt;b&gt;5&lt;/b&gt;" style="text;html=1;strokeColor=#d6b656;fillColor=#fff2cc;align=center;verticalAlign=middle;whiteSpace=wrap;rounded=1;fontSize=14;fontFamily=Helvetica;horizontal=1;" parent="1" vertex="1">
          <mxGeometry x="770" y="393" width="50" height="20" as="geometry" />
        </mxCell>
        <mxCell id="V7yZK2pKeIdHbW1tO0_u-72" value="Eth2:&lt;b&gt;9&lt;/b&gt;" style="text;html=1;strokeColor=#d6b656;fillColor=#fff2cc;align=center;verticalAlign=middle;whiteSpace=wrap;rounded=1;fontSize=14;fontFamily=Helvetica;horizontal=1;" parent="1" vertex="1">
          <mxGeometry x="648" y="367" width="50" height="20" as="geometry" />
        </mxCell>
        <mxCell id="V7yZK2pKeIdHbW1tO0_u-73" value="Eth2:&lt;b&gt;8&lt;/b&gt;" style="text;html=1;strokeColor=#d6b656;fillColor=#fff2cc;align=center;verticalAlign=middle;whiteSpace=wrap;rounded=1;fontSize=14;fontFamily=Helvetica;horizontal=1;" parent="1" vertex="1">
          <mxGeometry x="637.5" y="287" width="50" height="20" as="geometry" />
        </mxCell>
        <mxCell id="V7yZK2pKeIdHbW1tO0_u-74" value="Eth3:&lt;b&gt;10&lt;/b&gt;" style="text;html=1;strokeColor=#d6b656;fillColor=#fff2cc;align=center;verticalAlign=middle;whiteSpace=wrap;rounded=1;fontSize=14;fontFamily=Helvetica;horizontal=1;" parent="1" vertex="1">
          <mxGeometry x="690" y="267" width="50" height="20" as="geometry" />
        </mxCell>
        <mxCell id="V7yZK2pKeIdHbW1tO0_u-75" value="Eth2:&lt;b&gt;11&lt;/b&gt;" style="text;html=1;strokeColor=#d6b656;fillColor=#fff2cc;align=center;verticalAlign=middle;whiteSpace=wrap;rounded=1;fontSize=14;fontFamily=Helvetica;horizontal=1;" parent="1" vertex="1">
          <mxGeometry x="833" y="377" width="50" height="20" as="geometry" />
        </mxCell>
        <mxCell id="CEXHskLTJOovul5yJfJE-7" value="AS 65001" style="text;html=1;strokeColor=none;fillColor=none;align=center;verticalAlign=middle;whiteSpace=wrap;rounded=0;fontSize=24;fontFamily=Helvetica;horizontal=1;fontStyle=1;fontColor=#000000;" parent="1" vertex="1">
          <mxGeometry x="50" y="356" width="270" height="28" as="geometry" />
        </mxCell>
        <mxCell id="CEXHskLTJOovul5yJfJE-8" value="AS 65002" style="text;html=1;strokeColor=none;fillColor=none;align=center;verticalAlign=middle;whiteSpace=wrap;rounded=0;fontSize=24;fontFamily=Helvetica;horizontal=1;fontStyle=1;fontColor=#000000;" parent="1" vertex="1">
          <mxGeometry x="390" y="359" width="270" height="28" as="geometry" />
        </mxCell>
        <mxCell id="CEXHskLTJOovul5yJfJE-9" value="AS 65003" style="text;html=1;strokeColor=none;fillColor=none;align=center;verticalAlign=middle;whiteSpace=wrap;rounded=0;fontSize=24;fontFamily=Helvetica;horizontal=1;fontStyle=1;fontColor=#000000;" parent="1" vertex="1">
          <mxGeometry x="833" y="363" width="270" height="28" as="geometry" />
        </mxCell>
        <mxCell id="8NDlUTmJP2dTjy302EjL-72" value="Leaf-2&lt;br&gt;&lt;div style=&quot;&quot;&gt;&lt;span style=&quot;background-color: initial;&quot;&gt;L0:&amp;nbsp;10.1.1.2/32&lt;/span&gt;&lt;/div&gt;&lt;div style=&quot;&quot;&gt;&lt;span style=&quot;background-color: initial;&quot;&gt;L1:&amp;nbsp;&lt;/span&gt;&lt;span style=&quot;background-color: initial;&quot;&gt;10.1.2.2/32;&lt;/span&gt;&lt;/div&gt;&lt;div style=&quot;&quot;&gt;&lt;span style=&quot;background-color: initial;&quot;&gt;10.1.2.20/32 sec&lt;/span&gt;&lt;/div&gt;" style="text;html=1;strokeColor=none;fillColor=none;align=left;verticalAlign=middle;whiteSpace=wrap;rounded=0;fontSize=20;fontFamily=Helvetica;horizontal=1;" parent="1" vertex="1">
          <mxGeometry x="450" y="411" width="170" height="50" as="geometry" />
        </mxCell>
        <mxCell id="8NDlUTmJP2dTjy302EjL-5" value="" style="shape=mxgraph.cisco.misc.route_switch_processor;html=1;dashed=0;fillColor=#036897;strokeColor=#ffffff;strokeWidth=2;verticalLabelPosition=bottom;verticalAlign=top;rounded=0;shadow=0;comic=0;fontFamily=Verdana;fontSize=12;" parent="1" vertex="1">
          <mxGeometry x="456.62" y="167" width="71" height="95" as="geometry" />
        </mxCell>
        <mxCell id="8NDlUTmJP2dTjy302EjL-2" value="" style="shape=mxgraph.cisco.switches.layer_3_switch;sketch=0;html=1;pointerEvents=1;dashed=0;fillColor=#036897;strokeColor=#ffffff;strokeWidth=2;verticalLabelPosition=bottom;verticalAlign=top;align=center;outlineConnect=0;hachureGap=4;jiggle=2;curveFitting=1;fontFamily=Architects Daughter;fontSource=https%3A%2F%2Ffonts.googleapis.com%2Fcss%3Ffamily%3DArchitects%2BDaughter;fontSize=20;" parent="1" vertex="1">
          <mxGeometry x="301" y="420" width="59" height="60" as="geometry" />
        </mxCell>
        <mxCell id="hgnLhlOXLDX8HSQQPNeT-7" value="" style="shape=mxgraph.cisco.switches.layer_3_switch;sketch=0;html=1;pointerEvents=1;dashed=0;fillColor=#036897;strokeColor=#ffffff;strokeWidth=2;verticalLabelPosition=bottom;verticalAlign=top;align=center;outlineConnect=0;hachureGap=4;jiggle=2;curveFitting=1;fontFamily=Architects Daughter;fontSource=https%3A%2F%2Ffonts.googleapis.com%2Fcss%3Ffamily%3DArchitects%2BDaughter;fontSize=20;" parent="1" vertex="1">
          <mxGeometry x="621.63" y="420" width="59" height="60" as="geometry" />
        </mxCell>
        <mxCell id="hgnLhlOXLDX8HSQQPNeT-8" value="" style="shape=mxgraph.cisco.switches.layer_3_switch;sketch=0;html=1;pointerEvents=1;dashed=0;fillColor=#036897;strokeColor=#ffffff;strokeWidth=2;verticalLabelPosition=bottom;verticalAlign=top;align=center;outlineConnect=0;hachureGap=4;jiggle=2;curveFitting=1;fontFamily=Architects Daughter;fontSource=https%3A%2F%2Ffonts.googleapis.com%2Fcss%3Ffamily%3DArchitects%2BDaughter;fontSize=20;" parent="1" vertex="1">
          <mxGeometry x="849" y="419" width="59" height="60" as="geometry" />
        </mxCell>
        <mxCell id="hgnLhlOXLDX8HSQQPNeT-11" value="" style="shape=mxgraph.cisco.servers.fileserver;sketch=0;html=1;pointerEvents=1;dashed=0;fillColor=#036897;strokeColor=#ffffff;strokeWidth=2;verticalLabelPosition=bottom;verticalAlign=top;align=center;outlineConnect=0;" parent="1" vertex="1">
          <mxGeometry x="347.12" y="552" width="58" height="82" as="geometry" />
        </mxCell>
        <mxCell id="hgnLhlOXLDX8HSQQPNeT-15" style="edgeStyle=none;rounded=0;hachureGap=4;orthogonalLoop=1;jettySize=auto;html=1;exitX=0.5;exitY=0;exitDx=0;exitDy=0;exitPerimeter=0;fontFamily=Architects Daughter;fontSource=https%3A%2F%2Ffonts.googleapis.com%2Fcss%3Ffamily%3DArchitects%2BDaughter;fontSize=16;strokeColor=#EA6B66;endArrow=none;endFill=0;strokeWidth=3;entryX=0.5;entryY=1;entryDx=0;entryDy=0;entryPerimeter=0;" parent="1" source="hgnLhlOXLDX8HSQQPNeT-11" target="hgnLhlOXLDX8HSQQPNeT-7" edge="1">
          <mxGeometry relative="1" as="geometry">
            <mxPoint x="104.5" y="717" as="sourcePoint" />
            <mxPoint x="340" y="597" as="targetPoint" />
          </mxGeometry>
        </mxCell>
        <mxCell id="hgnLhlOXLDX8HSQQPNeT-17" style="edgeStyle=none;rounded=0;hachureGap=4;orthogonalLoop=1;jettySize=auto;html=1;exitX=0.5;exitY=0;exitDx=0;exitDy=0;exitPerimeter=0;fontFamily=Architects Daughter;fontSource=https%3A%2F%2Ffonts.googleapis.com%2Fcss%3Ffamily%3DArchitects%2BDaughter;fontSize=16;strokeColor=#EA6B66;endArrow=none;endFill=0;strokeWidth=3;entryX=0.5;entryY=1;entryDx=0;entryDy=0;entryPerimeter=0;" parent="1" source="6Dfauh0U3FbBK-AMj__--1" target="hgnLhlOXLDX8HSQQPNeT-8" edge="1">
          <mxGeometry relative="1" as="geometry">
            <mxPoint x="778.1200000000001" y="539.5" as="sourcePoint" />
            <mxPoint x="847.38" y="557" as="targetPoint" />
          </mxGeometry>
        </mxCell>
        <mxCell id="hgnLhlOXLDX8HSQQPNeT-18" value="PC-1&lt;br&gt;IP: 10.1.3.2/26" style="text;html=1;strokeColor=none;fillColor=none;align=center;verticalAlign=middle;whiteSpace=wrap;rounded=0;fontSize=20;fontFamily=Helvetica;horizontal=1;" parent="1" vertex="1">
          <mxGeometry x="290.62" y="652" width="161" height="14" as="geometry" />
        </mxCell>
        <mxCell id="C9soJnvK-WdOjWq8ESSx-10" value="" style="rounded=0;whiteSpace=wrap;html=1;strokeColor=#660066;strokeWidth=1;" parent="1" vertex="1">
          <mxGeometry x="28" y="90" width="339" height="190" as="geometry" />
        </mxCell>
        <mxCell id="C9soJnvK-WdOjWq8ESSx-11" value="&lt;font color=&quot;#004c99&quot;&gt;Client - VRF SEMETIRB&amp;nbsp;&lt;/font&gt;" style="text;html=1;strokeColor=none;fillColor=none;align=center;verticalAlign=middle;whiteSpace=wrap;rounded=0;fontSize=20;fontFamily=Helvetica;horizontal=1;strokeWidth=0;" parent="1" vertex="1">
          <mxGeometry x="30" y="90" width="230" height="50" as="geometry" />
        </mxCell>
        <mxCell id="C9soJnvK-WdOjWq8ESSx-12" value="&lt;div&gt;&lt;font color=&quot;#004c99&quot;&gt;VLAN 10/VNI 10010/IP 10.1.3.1/25&lt;/font&gt;&lt;/div&gt;" style="text;html=1;strokeColor=none;fillColor=none;align=left;verticalAlign=middle;whiteSpace=wrap;rounded=0;fontSize=20;fontFamily=Helvetica;horizontal=1;strokeWidth=0;" parent="1" vertex="1">
          <mxGeometry x="29" y="127" width="321" height="40" as="geometry" />
        </mxCell>
        <mxCell id="cSVi1MsGPV3FUOWv3ege-2" style="edgeStyle=none;rounded=0;hachureGap=4;orthogonalLoop=1;jettySize=auto;html=1;fontFamily=Architects Daughter;fontSource=https%3A%2F%2Ffonts.googleapis.com%2Fcss%3Ffamily%3DArchitects%2BDaughter;fontSize=16;strokeColor=#EA6B66;endArrow=none;endFill=0;strokeWidth=3;entryX=0.5;entryY=0;entryDx=0;entryDy=0;entryPerimeter=0;exitX=0.5;exitY=1;exitDx=0;exitDy=0;exitPerimeter=0;" parent="1" source="hgnLhlOXLDX8HSQQPNeT-7" target="6Dfauh0U3FbBK-AMj__--1" edge="1">
          <mxGeometry relative="1" as="geometry">
            <mxPoint x="711.5" y="561" as="sourcePoint" />
            <mxPoint x="778.1200000000001" y="539.5" as="targetPoint" />
          </mxGeometry>
        </mxCell>
        <mxCell id="cSVi1MsGPV3FUOWv3ege-3" style="edgeStyle=none;rounded=0;hachureGap=4;orthogonalLoop=1;jettySize=auto;html=1;fontFamily=Architects Daughter;fontSource=https%3A%2F%2Ffonts.googleapis.com%2Fcss%3Ffamily%3DArchitects%2BDaughter;fontSize=16;strokeColor=#00CC00;endArrow=none;endFill=0;strokeWidth=3;entryX=0;entryY=0.5;entryDx=0;entryDy=0;entryPerimeter=0;" parent="1" source="hgnLhlOXLDX8HSQQPNeT-7" target="hgnLhlOXLDX8HSQQPNeT-8" edge="1">
          <mxGeometry relative="1" as="geometry">
            <mxPoint x="634.87" y="500" as="sourcePoint" />
            <mxPoint x="761.87" y="560" as="targetPoint" />
          </mxGeometry>
        </mxCell>
        <mxCell id="cSVi1MsGPV3FUOWv3ege-4" style="edgeStyle=none;rounded=0;hachureGap=4;orthogonalLoop=1;jettySize=auto;html=1;fontFamily=Architects Daughter;fontSource=https%3A%2F%2Ffonts.googleapis.com%2Fcss%3Ffamily%3DArchitects%2BDaughter;fontSize=16;strokeColor=#00CC00;endArrow=none;endFill=0;strokeWidth=3;entryX=0;entryY=0.5;entryDx=0;entryDy=0;entryPerimeter=0;" parent="1" edge="1">
          <mxGeometry relative="1" as="geometry">
            <mxPoint x="681" y="461" as="sourcePoint" />
            <mxPoint x="849" y="460" as="targetPoint" />
          </mxGeometry>
        </mxCell>
        <mxCell id="cSVi1MsGPV3FUOWv3ege-5" value="&lt;font style=&quot;font-size: 12px;&quot;&gt;peer-link: 192.168.0.0/30&lt;/font&gt;" style="text;html=1;strokeColor=none;fillColor=default;align=center;verticalAlign=bottom;whiteSpace=wrap;rounded=1;fontSize=20;fontFamily=Helvetica;horizontal=1;gradientColor=none;fillStyle=auto;glass=0;" parent="1" vertex="1">
          <mxGeometry x="698" y="443" width="140" height="23" as="geometry" />
        </mxCell>
        <mxCell id="6Dfauh0U3FbBK-AMj__--1" value="" style="shape=mxgraph.cisco.switches.layer_3_switch;sketch=0;html=1;pointerEvents=1;dashed=0;fillColor=#036897;strokeColor=#ffffff;strokeWidth=2;verticalLabelPosition=bottom;verticalAlign=top;align=center;outlineConnect=0;hachureGap=4;jiggle=2;curveFitting=1;fontFamily=Architects Daughter;fontSource=https%3A%2F%2Ffonts.googleapis.com%2Fcss%3Ffamily%3DArchitects%2BDaughter;fontSize=20;" parent="1" vertex="1">
          <mxGeometry x="749.12" y="564" width="59" height="60" as="geometry" />
        </mxCell>
        <mxCell id="hP2QszLyOP73C7yzCdP5-1" value="" style="shape=mxgraph.cisco.servers.fileserver;sketch=0;html=1;pointerEvents=1;dashed=0;fillColor=#036897;strokeColor=#ffffff;strokeWidth=2;verticalLabelPosition=bottom;verticalAlign=top;align=center;outlineConnect=0;" vertex="1" parent="1">
          <mxGeometry x="950" y="552" width="58" height="82" as="geometry" />
        </mxCell>
        <mxCell id="hP2QszLyOP73C7yzCdP5-2" value="PC-4&lt;br&gt;IP: 10.1.3.194/26" style="text;html=1;strokeColor=none;fillColor=none;align=center;verticalAlign=middle;whiteSpace=wrap;rounded=0;fontSize=20;fontFamily=Helvetica;horizontal=1;" vertex="1" parent="1">
          <mxGeometry x="898.5" y="653" width="161" height="14" as="geometry" />
        </mxCell>
        <mxCell id="hP2QszLyOP73C7yzCdP5-3" value="" style="shape=mxgraph.cisco.servers.fileserver;sketch=0;html=1;pointerEvents=1;dashed=0;fillColor=#036897;strokeColor=#ffffff;strokeWidth=2;verticalLabelPosition=bottom;verticalAlign=top;align=center;outlineConnect=0;" vertex="1" parent="1">
          <mxGeometry x="556" y="552" width="58" height="82" as="geometry" />
        </mxCell>
        <mxCell id="hP2QszLyOP73C7yzCdP5-4" style="edgeStyle=none;rounded=0;hachureGap=4;orthogonalLoop=1;jettySize=auto;html=1;exitX=0.5;exitY=0;exitDx=0;exitDy=0;exitPerimeter=0;fontFamily=Architects Daughter;fontSource=https%3A%2F%2Ffonts.googleapis.com%2Fcss%3Ffamily%3DArchitects%2BDaughter;fontSize=16;strokeColor=#EA6B66;endArrow=none;endFill=0;strokeWidth=3;" edge="1" parent="1" source="hP2QszLyOP73C7yzCdP5-3">
          <mxGeometry relative="1" as="geometry">
            <mxPoint x="405" y="602" as="sourcePoint" />
            <mxPoint x="650" y="480" as="targetPoint" />
          </mxGeometry>
        </mxCell>
        <mxCell id="hP2QszLyOP73C7yzCdP5-5" style="edgeStyle=none;rounded=0;hachureGap=4;orthogonalLoop=1;jettySize=auto;html=1;exitX=0.5;exitY=0;exitDx=0;exitDy=0;exitPerimeter=0;fontFamily=Architects Daughter;fontSource=https%3A%2F%2Ffonts.googleapis.com%2Fcss%3Ffamily%3DArchitects%2BDaughter;fontSize=16;strokeColor=#EA6B66;endArrow=none;endFill=0;strokeWidth=3;" edge="1" parent="1" source="hP2QszLyOP73C7yzCdP5-1">
          <mxGeometry relative="1" as="geometry">
            <mxPoint x="885" y="612" as="sourcePoint" />
            <mxPoint x="880" y="480" as="targetPoint" />
          </mxGeometry>
        </mxCell>
        <mxCell id="hP2QszLyOP73C7yzCdP5-6" value="PC-2&lt;br&gt;IP: 10.1.3.66/26" style="text;html=1;strokeColor=none;fillColor=none;align=center;verticalAlign=middle;whiteSpace=wrap;rounded=0;fontSize=20;fontFamily=Helvetica;horizontal=1;" vertex="1" parent="1">
          <mxGeometry x="499.62" y="652" width="161" height="14" as="geometry" />
        </mxCell>
        <mxCell id="hP2QszLyOP73C7yzCdP5-10" value="" style="shape=mxgraph.cisco.security.ios_firewall;sketch=0;html=1;pointerEvents=1;dashed=0;fillColor=#036897;strokeColor=#ffffff;strokeWidth=2;verticalLabelPosition=bottom;verticalAlign=top;align=center;outlineConnect=0;" vertex="1" parent="1">
          <mxGeometry x="110" y="552" width="60" height="84" as="geometry" />
        </mxCell>
        <mxCell id="hP2QszLyOP73C7yzCdP5-11" style="edgeStyle=none;rounded=0;hachureGap=4;orthogonalLoop=1;jettySize=auto;html=1;exitX=0.5;exitY=0;exitDx=0;exitDy=0;exitPerimeter=0;fontFamily=Architects Daughter;fontSource=https%3A%2F%2Ffonts.googleapis.com%2Fcss%3Ffamily%3DArchitects%2BDaughter;fontSize=16;strokeColor=#EA6B66;endArrow=none;endFill=0;strokeWidth=3;entryX=0.5;entryY=1;entryDx=0;entryDy=0;entryPerimeter=0;" edge="1" parent="1" source="hP2QszLyOP73C7yzCdP5-10">
          <mxGeometry relative="1" as="geometry">
            <mxPoint x="49.879999999999995" y="552" as="sourcePoint" />
            <mxPoint x="324.88" y="480" as="targetPoint" />
          </mxGeometry>
        </mxCell>
        <mxCell id="hP2QszLyOP73C7yzCdP5-12" value="FW" style="text;html=1;strokeColor=none;fillColor=none;align=center;verticalAlign=middle;whiteSpace=wrap;rounded=0;fontSize=20;fontFamily=Helvetica;horizontal=1;" vertex="1" parent="1">
          <mxGeometry x="114.5" y="647" width="51" height="14" as="geometry" />
        </mxCell>
        <mxCell id="hP2QszLyOP73C7yzCdP5-15" value="Client-3&lt;br&gt;IP: 10.1.3.130/26" style="text;html=1;strokeColor=none;fillColor=none;align=center;verticalAlign=middle;whiteSpace=wrap;rounded=0;fontSize=20;fontFamily=Helvetica;horizontal=1;" vertex="1" parent="1">
          <mxGeometry x="699.5" y="642.75" width="161" height="32.5" as="geometry" />
        </mxCell>
      </root>
    </mxGraphModel>
  </diagram>
</mxfile>
